<svg xmlns="http://www.w3.org/2000/svg" width="41.132" height="41.132" viewBox="0 0 41.132 41.132">
  <g id="logo-servo-white" transform="translate(-13.4 -23)">
    <circle id="Ellipse_39" data-name="Ellipse 39" cx="15.669" cy="15.669" r="15.669" transform="translate(18.297 27.407)" fill="#fff"/>
    <g id="Group_27" data-name="Group 27" transform="translate(13.4 23)">
      <path id="Path_306" data-name="Path 306" d="M33.966,23A20.566,20.566,0,1,0,54.532,43.566,20.532,20.532,0,0,0,33.966,23ZM26.621,48.463a2.033,2.033,0,0,1-.49-2.938l5.141-5.141a2.033,2.033,0,0,1,2.938.49,2.033,2.033,0,0,1,.49,2.938l-5.141,5.141A2.033,2.033,0,0,1,26.621,48.463Zm17.628-3.917L32.987,55.808a2.223,2.223,0,0,1-1.714.734,2.194,2.194,0,0,1-2.2-2.2,2.645,2.645,0,0,1,.734-1.714L39.6,42.831,29.8,33.038a2.223,2.223,0,0,1-.734-1.714,2.194,2.194,0,0,1,2.2-2.2,2.645,2.645,0,0,1,1.714.734L44.249,41.118a2.223,2.223,0,0,1,.734,1.714A1.906,1.906,0,0,1,44.249,44.545Z" transform="translate(-13.4 -23)" fill="#ff224f"/>
    </g>
  </g>
</svg>
